<?xml version="1.0" standalone="no"?><!DOCTYPE svg PUBLIC "-//W3C//DTD SVG 1.1//EN" "http://www.w3.org/Graphics/SVG/1.1/DTD/svg11.dtd"><svg t="1697294058224" class="icon" viewBox="0 0 1212 1024" version="1.1" xmlns="http://www.w3.org/2000/svg" p-id="6776" width="18.9375" height="16" xmlns:xlink="http://www.w3.org/1999/xlink"><path d="M1167.232584 938.434151H82.778451V42.317893A41.852861 41.852861 0 0 0 41.390622 0 41.852861 41.852861 0 0 0 0.002793 42.317893V976.566757a42.317893 42.317893 0 0 0 29.762034 40.457766 42.317893 42.317893 0 0 0 22.786558 6.975477h1116.076294a42.317893 42.317893 0 0 0 0-84.635786zM149.277997 728.239782h106.027248a31.622162 31.622162 0 0 0 27.436876-16.741144l65.569482-93.006358 101.841962 212.054496a31.622162 31.622162 0 0 0 28.366939 17.671208 32.087193 32.087193 0 0 0 29.762034-21.391463l162.296095-483.633061 95.796548 295.760218a31.15713 31.15713 0 0 0 24.646685 21.391463 32.552225 32.552225 0 0 0 11.625795 2.325159h165.086285a78.125341 78.125341 0 0 0 66.034514 32.087193 68.824705 68.824705 0 0 0 74.870118-59.989101 68.359673 68.359673 0 0 0-74.870118-59.9891 81.380563 81.380563 0 0 0-60.454132 24.646684h-152.530427l-117.653043-362.724795a29.762035 29.762035 0 0 0-19.996367-23.25159 30.692098 30.692098 0 0 0-39.527702 19.531335L474.335218 735.680291l-93.006358-191.128066-3.255223-5.115349a33.482289 33.482289 0 0 0-6.045413-9.300636 30.692098 30.692098 0 0 0-43.247956 7.440508L239.029132 664.995459H149.277997a31.622162 31.622162 0 0 0 0 63.244323z" fill="#ffffff" p-id="6777"></path></svg>