<?xml version="1.0" standalone="no"?><!DOCTYPE svg PUBLIC "-//W3C//DTD SVG 1.1//EN" "http://www.w3.org/Graphics/SVG/1.1/DTD/svg11.dtd"><svg t="1699280447717" class="icon" viewBox="0 0 1024 1024" version="1.1" xmlns="http://www.w3.org/2000/svg" p-id="1744" xmlns:xlink="http://www.w3.org/1999/xlink" width="16" height="16"><path d="M492.032 808.448l20.48 15.872 20.48-15.872s0.512-0.512 1.024-0.512c8.704-7.168 74.752-59.904 141.824-135.168 97.28-109.568 146.432-209.92 146.432-297.984 0-170.496-138.752-309.76-309.76-309.76S202.752 203.776 202.752 374.272c0 88.064 49.152 188.416 146.432 297.984 70.656 79.36 139.776 133.632 142.848 136.192z m20.48-676.864c134.144 0 243.2 109.056 243.2 243.2 0 70.144-44.544 157.184-129.024 252.928-44.032 50.176-89.088 90.112-114.176 111.616-25.088-20.992-69.12-60.928-113.152-110.592C314.368 532.992 269.824 445.44 269.824 374.784c-0.512-134.144 108.544-243.2 242.688-243.2z" fill="#ffffff" p-id="1745"></path><path d="M512 491.52c69.12 0 125.44-56.32 125.44-125.44S581.12 240.64 512 240.64 386.56 296.96 386.56 366.08 442.88 491.52 512 491.52z m0-184.32c32.256 0 58.88 26.624 58.88 58.88S544.768 424.96 512 424.96s-58.88-26.624-58.88-58.88S479.744 307.2 512 307.2z" fill="#ffffff" p-id="1746"></path><path d="M952.32 912.896l-105.984-263.168c-6.656-16.896-26.112-25.088-43.52-18.432-16.896 6.656-25.088 26.112-18.432 43.52l87.552 217.6H152.576l87.552-217.6c6.656-16.896-1.536-36.352-18.432-43.52-16.896-6.656-36.352 1.536-43.52 18.432l-105.984 263.168c-4.096 10.24-3.072 22.016 3.072 31.232 6.144 9.216 16.384 14.848 27.648 14.848h818.176c11.264 0 21.504-5.632 27.648-14.848 6.144-9.216 7.68-20.992 3.584-31.232z" fill="#ffffff" p-id="1747"></path></svg>