<?xml version="1.0" standalone="no"?><!DOCTYPE svg PUBLIC "-//W3C//DTD SVG 1.1//EN" "http://www.w3.org/Graphics/SVG/1.1/DTD/svg11.dtd"><svg t="1697799329714" class="icon" viewBox="0 0 1024 1024" version="1.1" xmlns="http://www.w3.org/2000/svg" p-id="4947" xmlns:xlink="http://www.w3.org/1999/xlink" width="16" height="16"><path d="M709.49 197.07c-12.76 0-23.09-9.77-23.09-21.83v-55.19c0-12.06 10.34-21.83 23.09-21.83 12.76 0 23.09 9.77 23.09 21.83v55.19c0 12.06-10.33 21.83-23.09 21.83zM792.27 228.22c-4.75 0-9.53-1.38-13.65-4.24-10.28-7.14-12.49-20.8-4.94-30.51l34.57-44.48c7.55-9.71 22-11.8 32.28-4.67 10.28 7.14 12.49 20.8 4.94 30.51l-34.57 44.48c-4.53 5.83-11.53 8.91-18.63 8.91zM845.68 293.07c-9.37 0-18.18-5.43-21.64-14.22-4.45-11.3 1.63-23.87 13.58-28.07l54.71-19.26c11.97-4.21 25.25 1.54 29.7 12.84s-1.63 23.87-13.58 28.07l-54.71 19.26c-2.66 0.93-5.38 1.38-8.06 1.38zM906.59 928.22c-3.06 0-6.15-0.57-9.07-1.76L670.6 834.72H437.92c-116.51 0-211.3-88.05-211.3-196.29V528.97c0-108.23 94.79-196.29 211.3-196.29h280.47c116.51 0 211.3 88.05 211.3 196.29v109.46c0 50.11-20.95 98.4-57.99 134.76l56.14 124.64c3.7 8.2 1.74 17.7-4.93 24-4.41 4.18-10.32 6.39-16.32 6.39zM437.92 376.34c-91.04 0-165.12 68.47-165.12 152.63v109.46c0 84.16 74.07 152.63 165.12 152.63h237.41c3.12 0 6.21 0.6 9.08 1.76l178.42 72.13-39.87-88.51c-3.89-8.65-1.5-18.67 5.94-24.9 34.7-29.02 54.6-70.24 54.6-113.11V528.97c0-84.16-74.07-152.63-165.12-152.63H437.92z" p-id="4948" fill="#ffffff"></path><path d="M123.48 826.24c-5.94 0-11.8-2.17-16.21-6.27-6.72-6.25-8.74-15.74-5.11-23.97l58.33-132.04c-38.38-38.11-60.11-88.85-60.11-141.49V407.3c0-113.25 97.47-205.39 217.29-205.39h289.39c61.17 0 119.92 24.78 161.2 67.99 8.55 8.95 7.8 22.75-1.66 30.83-9.47 8.08-24.07 7.38-32.62-1.57-32.54-34.06-78.8-53.59-126.92-53.59H317.67c-94.35 0-171.1 72.55-171.1 161.73v115.17c0 45.51 20.68 89.25 56.75 120.01 7.28 6.2 9.62 16.07 5.84 24.62l-42.22 95.58 27.36-11.28c11.69-4.81 25.3 0.23 30.4 11.28 5.1 11.05-0.24 23.91-11.93 28.73l-80.05 33a24.087 24.087 0 0 1-9.24 1.83z" p-id="4949" fill="#ffffff"></path><path d="M425.55 622.29c-12.76 0-23.09-9.77-23.09-21.83v-71.98c0-12.06 10.34-21.83 23.09-21.83 12.76 0 23.09 9.77 23.09 21.83v71.98c0.01 12.06-10.33 21.83-23.09 21.83zM628.63 622.29c-12.76 0-23.09-9.77-23.09-21.83v-71.98c0-12.06 10.34-21.83 23.09-21.83s23.09 9.77 23.09 21.83v71.98c0.01 12.06-10.33 21.83-23.09 21.83z" p-id="4950" fill="#ffffff"></path></svg>